<?xml version="1.0" encoding="UTF-8"?>
<svg id="Layer_2" data-name="Layer 2" xmlns="http://www.w3.org/2000/svg" xmlns:xlink="http://www.w3.org/1999/xlink" viewBox="0 0 564.86 564.86">
  <defs>
    <style>
      .cls-1, .cls-2, .cls-3, .cls-4 {
        fill: none;
      }

      .cls-1, .cls-5, .cls-3, .cls-6, .cls-7, .cls-8, .cls-9, .cls-10, .cls-11, .cls-12, .cls-13, .cls-14, .cls-15, .cls-16, .cls-17, .cls-18, .cls-19, .cls-20, .cls-21, .cls-22, .cls-4, .cls-23, .cls-24, .cls-25, .cls-26, .cls-27, .cls-28, .cls-29, .cls-30, .cls-31, .cls-32, .cls-33, .cls-34, .cls-35, .cls-36, .cls-37, .cls-38, .cls-39, .cls-40, .cls-41, .cls-42, .cls-43, .cls-44, .cls-45, .cls-46, .cls-47, .cls-48, .cls-49, .cls-50, .cls-51, .cls-52, .cls-53, .cls-54, .cls-55, .cls-56, .cls-57, .cls-58, .cls-59, .cls-60, .cls-61, .cls-62, .cls-63, .cls-64, .cls-65, .cls-66, .cls-67, .cls-68, .cls-69, .cls-70, .cls-71, .cls-72, .cls-73, .cls-74, .cls-75, .cls-76, .cls-77, .cls-78, .cls-79, .cls-80, .cls-81, .cls-82 {
        stroke: #0f2345;
      }

      .cls-1, .cls-5, .cls-6, .cls-7, .cls-8, .cls-9, .cls-10, .cls-11, .cls-12, .cls-13, .cls-14, .cls-15, .cls-16, .cls-17, .cls-18, .cls-19, .cls-20, .cls-21, .cls-22, .cls-4, .cls-23, .cls-24, .cls-25, .cls-26, .cls-27, .cls-28, .cls-29, .cls-30, .cls-31, .cls-32, .cls-33, .cls-34, .cls-35, .cls-36, .cls-37, .cls-38, .cls-39, .cls-40, .cls-41, .cls-42, .cls-43, .cls-44, .cls-45, .cls-46, .cls-47, .cls-48, .cls-49, .cls-50, .cls-51, .cls-52, .cls-53, .cls-54, .cls-55, .cls-56, .cls-57, .cls-58, .cls-59, .cls-60, .cls-61, .cls-62, .cls-63, .cls-64, .cls-65, .cls-66, .cls-67, .cls-68, .cls-69, .cls-70, .cls-71, .cls-72, .cls-73, .cls-74, .cls-75, .cls-76, .cls-77, .cls-78, .cls-79, .cls-80 {
        stroke-width: 2.44px;
      }

      .cls-1, .cls-5, .cls-22, .cls-23, .cls-24, .cls-25, .cls-26, .cls-27, .cls-28, .cls-29, .cls-30, .cls-31, .cls-32, .cls-33, .cls-34, .cls-35, .cls-36, .cls-37, .cls-38, .cls-39, .cls-40, .cls-41, .cls-42, .cls-43, .cls-44, .cls-45, .cls-46, .cls-47, .cls-48, .cls-49, .cls-50, .cls-51, .cls-52, .cls-53, .cls-54, .cls-55, .cls-56, .cls-57, .cls-58, .cls-59, .cls-60, .cls-61, .cls-62, .cls-63, .cls-64, .cls-65, .cls-66, .cls-67, .cls-68, .cls-69, .cls-70, .cls-71, .cls-72, .cls-73, .cls-74, .cls-75, .cls-76, .cls-77, .cls-78, .cls-79, .cls-80 {
        stroke-linejoin: bevel;
      }

      .cls-83 {
        clip-path: url(#clippath);
      }

      .cls-2, .cls-84 {
        stroke-width: 0px;
      }

      .cls-5 {
        fill: #404041;
      }

      .cls-3, .cls-6, .cls-7, .cls-8, .cls-9, .cls-10, .cls-11, .cls-12, .cls-13, .cls-14, .cls-15, .cls-16, .cls-17, .cls-18, .cls-19, .cls-20, .cls-21, .cls-4, .cls-81, .cls-82 {
        stroke-miterlimit: 10;
      }

      .cls-3, .cls-81, .cls-82 {
        stroke-width: 2.94px;
      }

      .cls-6 {
        fill: url(#linear-gradient-55);
      }

      .cls-7 {
        fill: url(#linear-gradient-56);
      }

      .cls-8 {
        fill: url(#linear-gradient-54);
      }

      .cls-9 {
        fill: url(#linear-gradient-57);
      }

      .cls-10 {
        fill: url(#linear-gradient-59);
      }

      .cls-11 {
        fill: url(#linear-gradient-58);
      }

      .cls-12 {
        fill: url(#linear-gradient-61);
      }

      .cls-13 {
        fill: url(#linear-gradient-60);
      }

      .cls-14 {
        fill: url(#linear-gradient-62);
      }

      .cls-15 {
        fill: url(#linear-gradient-64);
      }

      .cls-16 {
        fill: url(#linear-gradient-63);
      }

      .cls-17 {
        fill: url(#linear-gradient-66);
      }

      .cls-18 {
        fill: url(#linear-gradient-69);
      }

      .cls-19 {
        fill: url(#linear-gradient-65);
      }

      .cls-20 {
        fill: url(#linear-gradient-68);
      }

      .cls-21 {
        fill: url(#linear-gradient-67);
      }

      .cls-22 {
        fill: url(#linear-gradient);
      }

      .cls-23 {
        fill: url(#linear-gradient-36);
      }

      .cls-24 {
        fill: url(#linear-gradient-30);
      }

      .cls-25 {
        fill: url(#linear-gradient-33);
      }

      .cls-26 {
        fill: url(#linear-gradient-29);
      }

      .cls-27 {
        fill: url(#linear-gradient-28);
      }

      .cls-28 {
        fill: url(#linear-gradient-25);
      }

      .cls-29 {
        fill: url(#linear-gradient-32);
      }

      .cls-30 {
        fill: url(#linear-gradient-37);
      }

      .cls-31 {
        fill: url(#linear-gradient-35);
      }

      .cls-32 {
        fill: url(#linear-gradient-34);
      }

      .cls-33 {
        fill: url(#linear-gradient-39);
      }

      .cls-34 {
        fill: url(#linear-gradient-38);
      }

      .cls-35 {
        fill: url(#linear-gradient-31);
      }

      .cls-36 {
        fill: url(#linear-gradient-19);
      }

      .cls-37 {
        fill: url(#linear-gradient-16);
      }

      .cls-38 {
        fill: url(#linear-gradient-17);
      }

      .cls-39 {
        fill: url(#linear-gradient-13);
      }

      .cls-40 {
        fill: url(#linear-gradient-11);
      }

      .cls-41 {
        fill: url(#linear-gradient-12);
      }

      .cls-42 {
        fill: url(#linear-gradient-10);
      }

      .cls-43 {
        fill: url(#linear-gradient-21);
      }

      .cls-44 {
        fill: url(#linear-gradient-15);
      }

      .cls-45 {
        fill: url(#linear-gradient-18);
      }

      .cls-46 {
        fill: url(#linear-gradient-20);
      }

      .cls-47 {
        fill: url(#linear-gradient-22);
      }

      .cls-48 {
        fill: url(#linear-gradient-14);
      }

      .cls-49 {
        fill: url(#linear-gradient-23);
      }

      .cls-50 {
        fill: url(#linear-gradient-41);
      }

      .cls-51 {
        fill: url(#linear-gradient-42);
      }

      .cls-52 {
        fill: url(#linear-gradient-43);
      }

      .cls-53 {
        fill: url(#linear-gradient-40);
      }

      .cls-54 {
        fill: url(#linear-gradient-45);
      }

      .cls-55 {
        fill: url(#linear-gradient-47);
      }

      .cls-56 {
        fill: url(#linear-gradient-44);
      }

      .cls-57 {
        fill: url(#linear-gradient-49);
      }

      .cls-58 {
        fill: url(#linear-gradient-48);
      }

      .cls-59 {
        fill: url(#linear-gradient-46);
      }

      .cls-60 {
        fill: url(#linear-gradient-26);
      }

      .cls-61 {
        fill: url(#linear-gradient-24);
      }

      .cls-62 {
        fill: url(#linear-gradient-27);
      }

      .cls-63 {
        fill: url(#linear-gradient-53);
      }

      .cls-64 {
        fill: url(#linear-gradient-51);
      }

      .cls-65 {
        fill: url(#linear-gradient-50);
      }

      .cls-66 {
        fill: url(#linear-gradient-52);
      }

      .cls-67 {
        fill: url(#linear-gradient-74);
      }

      .cls-68 {
        fill: url(#linear-gradient-75);
      }

      .cls-69 {
        fill: url(#linear-gradient-71);
      }

      .cls-70 {
        fill: url(#linear-gradient-70);
      }

      .cls-71 {
        fill: url(#linear-gradient-73);
      }

      .cls-72 {
        fill: url(#linear-gradient-72);
      }

      .cls-73 {
        fill: url(#linear-gradient-5);
      }

      .cls-74 {
        fill: url(#linear-gradient-9);
      }

      .cls-75 {
        fill: url(#linear-gradient-3);
      }

      .cls-76 {
        fill: url(#linear-gradient-7);
      }

      .cls-77 {
        fill: url(#linear-gradient-8);
      }

      .cls-78 {
        fill: url(#linear-gradient-2);
      }

      .cls-79 {
        fill: url(#linear-gradient-4);
      }

      .cls-80 {
        fill: url(#linear-gradient-6);
      }

      .cls-84, .cls-81 {
        fill: #fff;
      }

      .cls-82 {
        fill: #0f2345;
      }
    </style>
    <linearGradient id="linear-gradient" x1="209.44" y1="284.33" x2="227.65" y2="252.79" gradientUnits="userSpaceOnUse">
      <stop offset="0" stop-color="#fff"/>
      <stop offset="1" stop-color="#f9c514"/>
    </linearGradient>
    <linearGradient id="linear-gradient-2" x1="233.5" y1="260.59" x2="261.62" y2="211.88" xlink:href="#linear-gradient"/>
    <linearGradient id="linear-gradient-3" x1="223.69" y1="250.51" x2="249.9" y2="205.12" xlink:href="#linear-gradient"/>
    <linearGradient id="linear-gradient-4" x1="248.85" y1="206.21" x2="262.87" y2="181.94" xlink:href="#linear-gradient"/>
    <linearGradient id="linear-gradient-5" x1="269.63" y1="216.51" x2="286.87" y2="186.64" xlink:href="#linear-gradient"/>
    <linearGradient id="linear-gradient-6" x1="278.34" y1="221.54" x2="295.58" y2="191.68" xlink:href="#linear-gradient"/>
    <linearGradient id="linear-gradient-7" x1="300.57" y1="213.87" x2="327.95" y2="166.44" xlink:href="#linear-gradient"/>
    <linearGradient id="linear-gradient-8" x1="303.57" y1="215.61" x2="331.21" y2="167.73" xlink:href="#linear-gradient"/>
    <linearGradient id="linear-gradient-9" x1="331.4" y1="168.43" x2="342.21" y2="149.72" xlink:href="#linear-gradient"/>
    <linearGradient id="linear-gradient-10" x1="359.68" y1="189.88" x2="372.7" y2="167.33" xlink:href="#linear-gradient"/>
    <linearGradient id="linear-gradient-11" x1="360.12" y1="190.13" x2="373.14" y2="167.58" xlink:href="#linear-gradient"/>
    <linearGradient id="linear-gradient-12" x1="383.92" y1="203.87" x2="396.17" y2="182.65" xlink:href="#linear-gradient"/>
    <linearGradient id="linear-gradient-13" x1="394.75" y1="185.11" x2="418.18" y2="144.52" xlink:href="#linear-gradient"/>
    <linearGradient id="linear-gradient-14" x1="385.56" y1="176.53" x2="407.58" y2="138.4" xlink:href="#linear-gradient"/>
    <linearGradient id="linear-gradient-15" x1="403.12" y1="146.11" x2="415.77" y2="124.2" xlink:href="#linear-gradient"/>
    <linearGradient id="linear-gradient-16" x1="416.74" y1="143.69" x2="424.94" y2="129.49" xlink:href="#linear-gradient"/>
    <linearGradient id="linear-gradient-17" x1="422.16" y1="134.29" x2="432.76" y2="115.95" xlink:href="#linear-gradient"/>
    <linearGradient id="linear-gradient-18" x1="435.76" y1="142.14" x2="446.35" y2="123.79" xlink:href="#linear-gradient"/>
    <linearGradient id="linear-gradient-19" x1="212.44" y1="356.76" x2="281.46" y2="356.76" gradientUnits="userSpaceOnUse">
      <stop offset="0" stop-color="#fff"/>
      <stop offset="1" stop-color="#f7e0bb"/>
    </linearGradient>
    <linearGradient id="linear-gradient-20" x1="380.3" y1="306.59" x2="399.46" y2="306.59" gradientUnits="userSpaceOnUse">
      <stop offset="0" stop-color="#fff"/>
      <stop offset="1" stop-color="#1c3867"/>
    </linearGradient>
    <linearGradient id="linear-gradient-21" x1="390.94" y1="290.19" x2="401.88" y2="290.19" xlink:href="#linear-gradient-19"/>
    <linearGradient id="linear-gradient-22" x1="399.73" y1="268.8" x2="414.26" y2="268.8" xlink:href="#linear-gradient-19"/>
    <linearGradient id="linear-gradient-23" x1="388.84" y1="231.41" x2="408.34" y2="231.41" xlink:href="#linear-gradient-19"/>
    <linearGradient id="linear-gradient-24" x1="350.72" y1="251.1" x2="369.23" y2="251.1" gradientUnits="userSpaceOnUse">
      <stop offset="0" stop-color="#fff"/>
      <stop offset="1" stop-color="#1e3c70"/>
    </linearGradient>
    <linearGradient id="linear-gradient-25" x1="365.74" y1="249.63" x2="381.71" y2="249.63" xlink:href="#linear-gradient-24"/>
    <linearGradient id="linear-gradient-26" x1="306.04" y1="379.76" x2="353.41" y2="379.76" xlink:href="#linear-gradient-19"/>
    <linearGradient id="linear-gradient-27" x1="335.23" y1="337.41" x2="387.09" y2="337.41" xlink:href="#linear-gradient-19"/>
    <linearGradient id="linear-gradient-28" x1="335.23" y1="330.8" x2="387.09" y2="330.8" xlink:href="#linear-gradient-19"/>
    <linearGradient id="linear-gradient-29" y1="331.12" y2="331.12" xlink:href="#linear-gradient-19"/>
    <linearGradient id="linear-gradient-30" x1="235.48" y1="261.15" x2="293.09" y2="203.54" xlink:href="#linear-gradient-20"/>
    <linearGradient id="linear-gradient-31" x1="238.45" y1="290.62" x2="273.63" y2="255.44" xlink:href="#linear-gradient-20"/>
    <linearGradient id="linear-gradient-32" x1="242.34" y1="311.91" y2="311.91" xlink:href="#linear-gradient-19"/>
    <linearGradient id="linear-gradient-33" x1="365.97" y1="169.28" x2="394.42" y2="140.84" xlink:href="#linear-gradient-20"/>
    <linearGradient id="linear-gradient-34" x1="339.81" y1="143.12" x2="368.26" y2="114.68" xlink:href="#linear-gradient-20"/>
    <linearGradient id="linear-gradient-35" x1="313.65" y1="154.89" x2="355.58" y2="112.96" xlink:href="#linear-gradient-20"/>
    <linearGradient id="linear-gradient-36" x1="269.86" y1="186.94" x2="349.71" y2="107.09" xlink:href="#linear-gradient-20"/>
    <linearGradient id="linear-gradient-37" x1="278.94" y1="196.02" x2="316.86" y2="158.1" xlink:href="#linear-gradient-20"/>
    <linearGradient id="linear-gradient-38" x1="241.21" y1="158.29" x2="321.06" y2="78.44" xlink:href="#linear-gradient-20"/>
    <linearGradient id="linear-gradient-39" x1="222.44" y1="177.06" x2="274.79" y2="124.7" xlink:href="#linear-gradient-20"/>
    <linearGradient id="linear-gradient-40" x1="221.06" y1="182.08" x2="243.03" y2="160.11" xlink:href="#linear-gradient-20"/>
    <linearGradient id="linear-gradient-41" x1="198.96" y1="183.09" x2="240.19" y2="183.09" xlink:href="#linear-gradient-24"/>
    <linearGradient id="linear-gradient-42" x1="213.28" y1="236.3" x2="244.28" y2="205.3" xlink:href="#linear-gradient-20"/>
    <linearGradient id="linear-gradient-43" x1="185" y1="264.59" x2="218.35" y2="231.23" xlink:href="#linear-gradient-20"/>
    <linearGradient id="linear-gradient-44" x1="115.74" y1="285.39" x2="194.12" y2="207.01" xlink:href="#linear-gradient-20"/>
    <linearGradient id="linear-gradient-45" x1="138.02" y1="218.08" x2="200.74" y2="155.36" xlink:href="#linear-gradient-20"/>
    <linearGradient id="linear-gradient-46" x1="93.23" y1="262.88" x2="171.61" y2="184.49" xlink:href="#linear-gradient-20"/>
    <linearGradient id="linear-gradient-47" x1="99.78" y1="301.35" x2="160.77" y2="240.36" xlink:href="#linear-gradient-20"/>
    <linearGradient id="linear-gradient-48" x1="124.9" y1="326.47" x2="185.89" y2="265.48" xlink:href="#linear-gradient-20"/>
    <linearGradient id="linear-gradient-49" x1="182.27" y1="305.55" x2="231.07" y2="256.74" xlink:href="#linear-gradient-20"/>
    <linearGradient id="linear-gradient-50" x1="199.98" y1="323.26" x2="248.79" y2="274.45" xlink:href="#linear-gradient-20"/>
    <linearGradient id="linear-gradient-51" x1="251.7" y1="277.37" x2="309.31" y2="219.76" xlink:href="#linear-gradient-20"/>
    <linearGradient id="linear-gradient-52" x1="380.3" y1="310.24" x2="399.46" y2="310.24" xlink:href="#linear-gradient-19"/>
    <linearGradient id="linear-gradient-53" y1="299.48" x2="401.88" y2="299.48" xlink:href="#linear-gradient-20"/>
    <clipPath id="clippath">
      <rect class="cls-2" x="44.97" y="318.09" width="459.78" height="116.6"/>
    </clipPath>
    <linearGradient id="linear-gradient-54" x1="109.91" y1="419.27" x2="140.08" y2="419.27" xlink:href="#linear-gradient-24"/>
    <linearGradient id="linear-gradient-55" x1="83.88" y1="289.43" x2="95.29" y2="289.43" gradientTransform="translate(48.91 3.21) rotate(11.05)" xlink:href="#linear-gradient-24"/>
    <linearGradient id="linear-gradient-56" x1="125.01" y1="396.96" x2="139.08" y2="396.96" xlink:href="#linear-gradient-24"/>
    <linearGradient id="linear-gradient-57" x1="90.29" y1="391.98" x2="118.81" y2="391.98" xlink:href="#linear-gradient-24"/>
    <linearGradient id="linear-gradient-58" x1="106.7" y1="367.17" x2="119.63" y2="367.17" xlink:href="#linear-gradient-24"/>
    <linearGradient id="linear-gradient-59" x1="95.7" y1="337.96" x2="106.7" y2="337.96" xlink:href="#linear-gradient-24"/>
    <linearGradient id="linear-gradient-60" x1="73.18" y1="359.96" x2="99.86" y2="359.96" xlink:href="#linear-gradient-24"/>
    <linearGradient id="linear-gradient-61" x1="59.94" y1="329.01" x2="86.61" y2="329.01" xlink:href="#linear-gradient-24"/>
    <linearGradient id="linear-gradient-62" x1="458.67" y1="416.94" x2="428.5" y2="416.94" xlink:href="#linear-gradient-24"/>
    <linearGradient id="linear-gradient-63" x1="482.84" y1="351.75" x2="471.43" y2="351.75" gradientTransform="translate(-33.28 20.57) rotate(-7.82)" xlink:href="#linear-gradient-24"/>
    <linearGradient id="linear-gradient-64" x1="444.43" y1="395.05" x2="430.36" y2="395.05" xlink:href="#linear-gradient-24"/>
    <linearGradient id="linear-gradient-65" x1="479.22" y1="390.07" x2="450.71" y2="390.07" xlink:href="#linear-gradient-24"/>
    <linearGradient id="linear-gradient-66" x1="461.64" y1="365.31" x2="448.71" y2="365.31" xlink:href="#linear-gradient-24"/>
    <linearGradient id="linear-gradient-67" x1="474.26" y1="336.56" x2="463.25" y2="336.56" xlink:href="#linear-gradient-24"/>
    <linearGradient id="linear-gradient-68" x1="495.89" y1="358.42" x2="469.21" y2="358.42" xlink:href="#linear-gradient-24"/>
    <linearGradient id="linear-gradient-69" x1="508.24" y1="327.1" x2="481.57" y2="327.1" xlink:href="#linear-gradient-24"/>
    <linearGradient id="linear-gradient-70" x1="175.47" y1="476.51" x2="220.05" y2="431.93" xlink:href="#linear-gradient-20"/>
    <linearGradient id="linear-gradient-71" x1="233.14" y1="479.42" x2="265.04" y2="447.51" xlink:href="#linear-gradient-20"/>
    <linearGradient id="linear-gradient-72" x1="260.75" y1="471.12" x2="294.55" y2="437.32" xlink:href="#linear-gradient-20"/>
    <linearGradient id="linear-gradient-73" x1="278.41" y1="486.28" x2="320.63" y2="444.06" xlink:href="#linear-gradient-20"/>
    <linearGradient id="linear-gradient-74" x1="325.52" y1="477.45" x2="360.51" y2="442.46" xlink:href="#linear-gradient-20"/>
    <linearGradient id="linear-gradient-75" x1="360.98" y1="471.07" x2="394.89" y2="437.16" xlink:href="#linear-gradient-20"/>
  </defs>
  <g id="Layer_1-2" data-name="Layer 1">
    <g>
      <circle class="cls-84" cx="282.43" cy="282.43" r="282.38"/>
      <g>
        <g>
          <path class="cls-3" d="M487.69,127.41l5.78,8.05,1.44,2.02,1.35,2.08,2.69,4.16c2.84.59,5.81,1.16,8.63,1.88,2.83.71,5.69,1.47,8.58,2.26"/>
          <path class="cls-3" d="M487.69,127.41l5.78,8.05,1.44,2.02,1.35,2.08,2.69,4.16c2.84.59,5.81,1.16,8.63,1.88,2.83.71,5.69,1.47,8.58,2.26"/>
          <path class="cls-81" d="M490.37,125.38c1.06,1.48.71,3.57-.79,4.67-1.5,1.1-3.55.82-4.58-.62-1.09-1.4-.8-3.43.66-4.58,1.46-1.14,3.58-.91,4.7.53Z"/>
          <path class="cls-82" d="M511.75,134.11c1.04,1.61.6,3.71-.97,4.69-1.57.98-3.67.52-4.68-1.04-1.01-1.56-.58-3.66.97-4.69s3.64-.56,4.68,1.04Z"/>
          <path class="cls-3" d="M445.4,67.88c5.61,4.08,10.81,8.66,16.12,13.12.33,6.03.51,11.93.55,17.7,2.58,2.59,5.1,5.24,7.66,7.85,1.3,1.29,2.5,2.67,3.7,4.05l3.62,4.12c5.89.25,11.58.92,17.52,1.64,2.58,3.12,4.89,6.44,7.25,9.72,1.17,1.65,2.38,3.27,3.51,4.95l3.3,5.09"/>
          <path class="cls-81" d="M443.37,70.56c1.48,1.12,3.6.85,4.75-.61,1.14-1.46.84-3.59-.69-4.74-1.52-1.16-3.65-.88-4.75.62-1.1,1.5-.79,3.62.69,4.74Z"/>
          <path class="cls-3" d="M487.69,127.41l5.78,8.05,1.44,2.02,1.35,2.08,2.69,4.16c2.84.59,5.81,1.16,8.63,1.88,2.83.71,5.69,1.47,8.58,2.26"/>
          <path class="cls-3" d="M487.69,127.41l5.78,8.05,1.44,2.02,1.35,2.08,2.69,4.16c2.84.59,5.81,1.16,8.63,1.88,2.83.71,5.69,1.47,8.58,2.26,1.01,1.78,2.08,3.53,3.05,5.33l2.82,5.45"/>
          <path class="cls-81" d="M490.37,125.38c1.06,1.48.71,3.57-.79,4.67-1.5,1.1-3.55.82-4.58-.62-1.09-1.4-.8-3.43.66-4.58,1.46-1.14,3.58-.91,4.7.53Z"/>
          <path class="cls-3" d="M449.82,87.27c-5.91-5.14-12.16-9.88-18.51-14.46"/>
          <path class="cls-3" d="M449.82,87.27c-5.91-5.14-12.16-9.88-18.51-14.46"/>
          <path class="cls-82" d="M447.53,90.08c1.35,1.14,3.45.93,4.67-.46,1.23-1.39,1.09-3.47-.3-4.65-1.39-1.17-3.49-.97-4.67.46-1.19,1.43-1.05,3.51.3,4.65Z"/>
          <path class="cls-3" d="M428.45,55.66c1.28,5.83,2.33,11.66,3.26,17.33,6.24,4.54,12.4,9.21,18.23,14.28"/>
          <path class="cls-3" d="M428.45,55.66c1.28,5.83,2.33,11.66,3.26,17.33,6.24,4.54,12.4,9.21,18.23,14.28"/>
          <path class="cls-3" d="M449.82,87.27c-5.91-5.14-12.16-9.88-18.51-14.46"/>
          <path class="cls-3" d="M449.82,87.27c-5.91-5.14-12.16-9.88-18.51-14.46"/>
          <path class="cls-82" d="M447.53,90.08c1.35,1.14,3.45.93,4.67-.46,1.23-1.39,1.09-3.47-.3-4.65-1.39-1.17-3.49-.97-4.67.46-1.19,1.43-1.05,3.51.3,4.65Z"/>
          <path class="cls-3" d="M428.45,55.66c1.28,5.83,2.33,11.66,3.26,17.33,6.24,4.54,12.4,9.21,18.23,14.28"/>
          <path class="cls-3" d="M449.94,87.27c-5.82-5.07-11.98-9.74-18.23-14.28-.93-5.66-1.98-11.49-3.26-17.33l-11.21-6.85"/>
          <path class="cls-3" d="M468.11,87.59l2.66,2.48c.86.85,1.7,1.73,2.54,2.6l5.07,5.22c1.72,1.71,3.3,3.55,4.9,5.37l4.8,5.46"/>
          <line class="cls-3" x1="421.43" y1="66.58" x2="410.75" y2="60.06"/>
          <path class="cls-3" d="M510.56,164.75l-2.87-5.56c-1.01-1.82-2.08-3.61-3.12-5.42"/>
        </g>
        <g>
          <path class="cls-3" d="M538.84,263.01c.19,1.64.21,3.3.3,4.95l.23,4.95c.06,1.65.2,3.3.18,4.95v4.96c2.08,2.03,4.18,4.11,6.27,6.24,2.03,2.13,3.99,4.3,5.98,6.53"/>
          <path class="cls-3" d="M538.84,263.01c.19,1.64.21,3.3.3,4.95l.23,4.95c.06,1.65.2,3.3.18,4.95v4.96c2.08,2.03,4.18,4.11,6.27,6.24,2.03,2.13,3.99,4.3,5.98,6.53"/>
          <path class="cls-81" d="M542.19,262.75c.21,1.82-1.29,3.39-3.13,3.5-1.87.12-3.37-1.23-3.57-2.99-.17-1.76,1.19-3.33,3.04-3.5,1.85-.17,3.49,1.17,3.66,2.98Z"/>
          <path class="cls-82" d="M555.52,281.63c0,1.91-1.51,3.45-3.37,3.43-1.86-.02-3.36-1.54-3.36-3.4,0-1.86,1.51-3.39,3.37-3.43s3.36,1.49,3.36,3.4Z"/>
          <path class="cls-3" d="M535.54,190.05l3.4,9.82c1.01,3.31,1.96,6.64,2.95,9.96-.71,1.3-1.41,2.59-2.15,3.87l-2.3,3.84c-1.54,2.54-3.09,5.02-4.66,7.46l.65,2.67c.19.89.35,1.8.53,2.69l1.04,5.39c.32,1.8.75,3.58.98,5.4l.78,5.43c2.34,1.71,4.73,3.45,7.05,5.26,2.27,1.81,4.54,3.67,6.81,5.58l.57,6.04.29,6.06.28,6.06c.09,2.02.02,4.04.04,6.06"/>
          <path class="cls-81" d="M532.38,191.2c.61,1.75,2.52,2.68,4.28,2.07,1.75-.61,2.67-2.57,2.04-4.37-.6-1.82-2.59-2.72-4.33-2.05-1.73.66-2.57,2.59-1.98,4.35Z"/>
          <path class="cls-3" d="M538.84,263.01c.19,1.64.21,3.3.3,4.95l.23,4.95c.06,1.65.2,3.3.18,4.95v4.96c2.08,2.03,4.18,4.11,6.27,6.24,2.03,2.13,3.99,4.3,5.98,6.53"/>
          <path class="cls-3" d="M538.84,263.01c.19,1.64.21,3.3.3,4.95l.23,4.95c.06,1.65.2,3.3.18,4.95v4.96c2.08,2.03,4.18,4.11,6.27,6.24,2.03,2.13,3.99,4.3,5.98,6.53l-.31,6.13c-.11,2.04-.38,4.08-.56,6.12"/>
          <path class="cls-81" d="M542.19,262.75c.21,1.82-1.29,3.39-3.13,3.5-1.87.12-3.37-1.23-3.57-2.99-.17-1.76,1.19-3.33,3.04-3.5,1.85-.17,3.49,1.17,3.66,2.98Z"/>
          <path class="cls-3" d="M528.71,208.75c-.57-1.87-1.06-3.77-1.7-5.63l-1.93-5.55c-.65-1.85-1.27-3.71-1.94-5.55l-2.19-5.45"/>
          <path class="cls-3" d="M528.71,208.75c-.57-1.87-1.06-3.77-1.7-5.63l-1.93-5.55c-.65-1.85-1.27-3.71-1.94-5.55l-2.19-5.45"/>
          <path class="cls-82" d="M525.26,209.87c.5,1.7,2.35,2.66,4.14,2.16,1.79-.5,2.82-2.33,2.3-4.08-.51-1.75-2.37-2.72-4.14-2.16s-2.8,2.39-2.3,4.08Z"/>
          <path class="cls-3" d="M527.83,170.63c-1.03,2.79-2.03,5.52-3.13,8.24-1.15,2.74-2.31,5.43-3.5,8.08l2.16,5.38,1.89,5.47,1.9,5.47c.61,1.83,1.11,3.7,1.67,5.55"/>
          <path class="cls-3" d="M527.83,170.63c-1.03,2.79-2.03,5.52-3.13,8.24-1.15,2.74-2.31,5.43-3.5,8.08l2.16,5.38,1.89,5.47,1.9,5.47c.61,1.83,1.11,3.7,1.67,5.55"/>
          <path class="cls-3" d="M528.71,208.75c-.57-1.87-1.06-3.77-1.7-5.63l-1.93-5.55c-.65-1.85-1.27-3.71-1.94-5.55l-2.19-5.45"/>
          <path class="cls-3" d="M528.71,208.75c-.57-1.87-1.06-3.77-1.7-5.63l-1.93-5.55c-.65-1.85-1.27-3.71-1.94-5.55l-2.19-5.45"/>
          <path class="cls-82" d="M525.26,209.87c.5,1.7,2.35,2.66,4.14,2.16,1.79-.5,2.82-2.33,2.3-4.08-.51-1.75-2.37-2.72-4.14-2.16s-2.8,2.39-2.3,4.08Z"/>
          <path class="cls-3" d="M527.83,170.63c-1.03,2.79-2.03,5.52-3.13,8.24-1.15,2.74-2.31,5.43-3.5,8.08l2.16,5.38,1.89,5.47,1.9,5.47c.61,1.83,1.11,3.7,1.67,5.55"/>
          <path class="cls-3" d="M528.81,208.81c-.56-1.85-1.05-3.72-1.67-5.55l-1.9-5.47-1.89-5.47-2.16-5.38c1.18-2.65,2.35-5.34,3.5-8.08,1.1-2.72,2.11-5.45,3.13-8.24l-2.74-5.97c-.95-1.97-2-3.9-2.99-5.85"/>
          <path class="cls-3" d="M543.91,218.92c.56,2.36,1.18,4.7,1.68,7.07l1.38,7.14c1.02,4.74,1.59,9.56,2.3,14.36"/>
          <path class="cls-3" d="M516.01,176l-2.6-5.69c-.91-1.88-1.9-3.71-2.85-5.57"/>
          <path class="cls-3" d="M538,306.79c.18-2.08.47-4.14.56-6.23l.31-6.24"/>
        </g>
        <g>
          <path class="cls-3" d="M508.58,404.67l-2.37,4.36c-.4.72-.78,1.46-1.2,2.17l-1.29,2.12-5.17,8.46c1.28,5.65,2.37,11.41,3.39,17.36"/>
          <path class="cls-3" d="M508.58,404.67l-2.37,4.36c-.4.72-.78,1.46-1.2,2.17l-1.29,2.12-5.17,8.46c1.28,5.65,2.37,11.41,3.39,17.36"/>
          <path class="cls-81" d="M511.53,406.27c-.87,1.6-2.89,2.17-4.51,1.26-1.62-.91-2.25-2.9-1.4-4.46.85-1.56,2.87-2.12,4.51-1.26s2.27,2.86,1.4,4.46Z"/>
          <path class="cls-82" d="M512.6,429.4c-.97,1.65-3.14,2.08-4.68,1.06-1.56-1.03-1.93-3.07-.98-4.67.97-1.59,3.04-2.08,4.62-1.11,1.58.97,2.05,3.09,1.05,4.72Z"/>
          <path class="cls-3" d="M545.41,341.58l-2.53,10.08-.64,2.52c-.22.84-.5,1.66-.74,2.49l-1.52,4.97c-2.63,1.41-5.21,2.79-7.85,4.1-2.69,1.29-5.37,2.53-8.03,3.72l-1.86,5.16c-.62,1.72-1.39,3.38-2.08,5.08l-2.12,5.06-1.06,2.53-1.18,2.48c1.02,2.69,2.02,5.43,3,8.21l1.45,4.2.71,2.12.63,2.11-5.79,10.65-6.32,10.35"/>
          <path class="cls-81" d="M542.13,340.84c-.45,1.8.64,3.61,2.45,4.05,1.8.43,3.65-.71,4.11-2.57.38-1.87-.79-3.7-2.61-4.08-1.82-.38-3.58.79-3.95,2.61Z"/>
          <path class="cls-3" d="M508.58,404.67l-2.37,4.36c-.4.72-.78,1.46-1.2,2.17l-1.29,2.12-5.17,8.46c1.28,5.65,2.37,11.41,3.39,17.36"/>
          <path class="cls-3" d="M508.58,404.67l-2.37,4.36c-.4.72-.78,1.46-1.2,2.17l-1.29,2.12-5.17,8.46c1.28,5.65,2.37,11.41,3.39,17.36l-.87,1.27-.93,1.22-1.86,2.45-3.72,4.89"/>
          <path class="cls-81" d="M511.53,406.27c-.87,1.6-2.89,2.17-4.51,1.26-1.62-.91-2.25-2.9-1.4-4.46.85-1.56,2.87-2.12,4.51-1.26s2.27,2.86,1.4,4.46Z"/>
          <path class="cls-3" d="M529.53,353.61c2.13-7.54,4.03-15.14,5.45-22.85"/>
          <path class="cls-3" d="M529.53,353.61c2.13-7.54,4.03-15.14,5.45-22.85"/>
          <path class="cls-82" d="M526.02,352.69c-.52,1.69.5,3.5,2.28,4.04,1.78.54,3.65-.43,4.18-2.17.55-1.74-.5-3.56-2.31-4.05-1.77-.48-3.62.5-4.15,2.18Z"/>
          <path class="cls-3" d="M549.37,321.06c-2.37,1.8-4.74,3.54-7.1,5.24-1.16.85-2.38,1.68-3.62,2.5l-3.67,2.41c-.79,3.78-1.42,7.59-2.45,11.32l-1.41,5.61-.71,2.81c-.25.93-.56,1.85-.83,2.77"/>
          <path class="cls-3" d="M549.37,321.06c-2.37,1.8-4.74,3.54-7.1,5.24-1.16.85-2.38,1.68-3.62,2.5l-3.67,2.41c-.79,3.78-1.42,7.59-2.45,11.32l-1.41,5.61-.71,2.81c-.25.93-.56,1.85-.83,2.77"/>
          <path class="cls-3" d="M529.53,353.61c2.13-7.54,4.03-15.14,5.45-22.85"/>
          <path class="cls-3" d="M529.53,353.61c2.13-7.54,4.03-15.14,5.45-22.85"/>
          <path class="cls-82" d="M526.02,352.69c-.52,1.69.5,3.5,2.28,4.04,1.78.54,3.65-.43,4.18-2.17.55-1.74-.5-3.56-2.31-4.05-1.77-.48-3.62.5-4.15,2.18Z"/>
          <path class="cls-3" d="M549.37,321.06c-2.37,1.8-4.74,3.54-7.1,5.24-1.16.85-2.38,1.68-3.62,2.5l-3.67,2.41c-.79,3.78-1.42,7.59-2.45,11.32l-1.41,5.61-.71,2.81c-.25.93-.56,1.85-.83,2.77"/>
          <path class="cls-3" d="M529.58,353.72c.28-.92.58-1.84.83-2.77l.71-2.81,1.41-5.61c1.03-3.72,1.66-7.54,2.45-11.32l3.67-2.41c1.24-.81,2.46-1.64,3.62-2.5,2.36-1.7,4.73-3.45,7.1-5.24.3-2.17.7-4.33.91-6.51l.65-6.54"/>
          <path class="cls-3" d="M536.79,370.39l-2.47,6.84c-.43,1.13-.79,2.29-1.27,3.41l-1.4,3.35-2.81,6.71-.7,1.68-.78,1.64-1.57,3.28"/>
          <path class="cls-3" d="M536.51,319.2c.28-2.06.67-4.12.87-6.19l.62-6.22"/>
          <path class="cls-3" d="M484.25,441.09l3.78-4.98c1.25-1.67,2.56-3.29,3.7-5.04"/>
        </g>
        <g>
          <path class="cls-3" d="M406.65,507.63c-5.86,3.05-11.69,6.19-17.75,8.83-.99,2.74-1.99,5.56-3.09,8.29-1.11,2.7-2.26,5.42-3.46,8.16"/>
          <path class="cls-3" d="M406.65,507.63c-5.86,3.05-11.69,6.19-17.75,8.83-.99,2.74-1.99,5.56-3.09,8.29-1.11,2.7-2.26,5.42-3.46,8.16"/>
          <path class="cls-81" d="M408.27,510.57c-1.6.88-3.64.2-4.5-1.43-.88-1.65-.29-3.61,1.26-4.46,1.53-.89,3.52-.3,4.44,1.31.92,1.61.38,3.66-1.19,4.58Z"/>
          <path class="cls-82" d="M396.59,530.49c-1.74.8-3.76.06-4.51-1.63-.75-1.7.01-3.7,1.7-4.48,1.69-.77,3.71-.04,4.51,1.63s.04,3.68-1.7,4.48Z"/>
          <path class="cls-3" d="M471.63,474.31l-3.73,3.62c-1.25,1.19-2.45,2.45-3.78,3.56l-7.81,6.86c-1.46-.08-2.96-.23-4.46-.39l-4.44-.49c-2.94-.34-5.84-.71-8.7-1.11-5.86,4.38-11.78,8.67-17.99,12.54l-.89,4.3-.47,2.16-.52,2.11c-.71,2.82-1.46,5.67-2.25,8.53-1.76,1-3.48,2.07-5.27,3l-5.39,2.79-5.39,2.78-5.51,2.53"/>
          <path class="cls-81" d="M469.27,471.92c-1.33,1.29-1.37,3.43-.09,4.77s3.44,1.35,4.81.01c1.37-1.33,1.41-3.47.09-4.77s-3.48-1.31-4.81-.01Z"/>
          <path class="cls-3" d="M406.65,507.63c-5.86,3.05-11.69,6.19-17.75,8.83-.99,2.74-1.99,5.56-3.09,8.29-1.11,2.7-2.26,5.42-3.46,8.16"/>
          <path class="cls-3" d="M406.65,507.63c-5.86,3.05-11.69,6.19-17.75,8.83-.99,2.74-1.99,5.56-3.09,8.29-1.11,2.7-2.26,5.42-3.46,8.16-1.9.76-3.79,1.54-5.71,2.27l-5.8,2.01"/>
          <path class="cls-81" d="M408.27,510.57c-1.6.88-3.64.2-4.5-1.43-.88-1.65-.29-3.61,1.26-4.46,1.53-.89,3.52-.3,4.44,1.31.92,1.61.38,3.66-1.19,4.58Z"/>
          <path class="cls-3" d="M451.8,475.9l4.41-3.88c1.47-1.3,2.83-2.71,4.25-4.06,2.8-2.74,5.68-5.4,8.29-8.33"/>
          <path class="cls-3" d="M451.8,475.9l4.41-3.88c1.47-1.3,2.83-2.71,4.25-4.06,2.8-2.74,5.68-5.4,8.29-8.33"/>
          <path class="cls-82" d="M449.34,473.23c-1.33,1.17-1.43,3.26-.23,4.68,1.2,1.42,3.28,1.59,4.65.38,1.37-1.2,1.47-3.3.23-4.68-1.24-1.38-3.33-1.55-4.66-.38Z"/>
          <path class="cls-3" d="M486.11,459.24l-4.39.35-4.45.19c-2.95.11-5.87.19-8.76.23-2.57,2.89-5.44,5.48-8.18,8.19-1.4,1.33-2.73,2.73-4.19,3.99l-4.35,3.82"/>
          <path class="cls-3" d="M486.11,459.24l-4.39.35-4.45.19c-2.95.11-5.87.19-8.76.23-2.57,2.89-5.44,5.48-8.18,8.19-1.4,1.33-2.73,2.73-4.19,3.99l-4.35,3.82"/>
          <path class="cls-3" d="M451.8,475.9l4.41-3.88c1.47-1.3,2.83-2.71,4.25-4.06,2.8-2.74,5.68-5.4,8.29-8.33"/>
          <path class="cls-3" d="M451.8,475.9l4.41-3.88c1.47-1.3,2.83-2.71,4.25-4.06,2.8-2.74,5.68-5.4,8.29-8.33"/>
          <path class="cls-82" d="M449.34,473.23c-1.33,1.17-1.43,3.26-.23,4.68,1.2,1.42,3.28,1.59,4.65.38,1.37-1.2,1.47-3.3.23-4.68-1.24-1.38-3.33-1.55-4.66-.38Z"/>
          <path class="cls-3" d="M486.11,459.24l-4.39.35-4.45.19c-2.95.11-5.87.19-8.76.23-2.57,2.89-5.44,5.48-8.18,8.19-1.4,1.33-2.73,2.73-4.19,3.99l-4.35,3.82"/>
          <path class="cls-3" d="M451.78,476.02l4.35-3.82c1.46-1.26,2.79-2.67,4.19-3.99,2.74-2.71,5.61-5.3,8.18-8.19,2.89-.04,5.8-.11,8.76-.23l4.45-.19,4.39-.35,4.23-5.02,2.12-2.51c.71-.84,1.34-1.73,2.01-2.6"/>
          <path class="cls-3" d="M448.86,493.95c-3.73,3.1-7.73,5.85-11.66,8.68l-2.95,2.12-3.05,1.98-6.11,3.95"/>
          <path class="cls-3" d="M476.29,450.74l4.03-4.78,2.02-2.39c.67-.79,1.27-1.65,1.91-2.47"/>
          <polyline class="cls-3" points="366.43 524.96 372.34 522.92 378.14 520.59"/>
        </g>
        <g>
          <path class="cls-3" d="M265.16,539.02c-1.65-.05-3.3-.22-4.94-.39l-4.93-.49c-1.64-.17-3.29-.31-4.93-.5l-4.9-.73c-2.31,1.77-4.66,3.54-7.07,5.3-2.41,1.77-4.83,3.34-7.32,5.01"/>
          <path class="cls-3" d="M265.16,539.02c-1.65-.05-3.3-.22-4.94-.39l-4.93-.49c-1.64-.17-3.29-.31-4.93-.5l-4.9-.73c-2.31,1.77-4.66,3.54-7.07,5.3-2.41,1.77-4.83,3.34-7.32,5.01"/>
          <path class="cls-81" d="M264.93,542.37c-1.83-.06-3.17-1.72-3.02-3.58.15-1.84,1.7-3.19,3.47-3.13,1.77.09,3.12,1.66,3.03,3.52-.1,1.85-1.65,3.28-3.47,3.19Z"/>
          <path class="cls-82" d="M244.35,552.88c-1.89-.28-3.2-2-2.91-3.83s2.01-3.1,3.85-2.83c1.84.27,3.14,1.99,2.91,3.83-.23,1.84-1.95,3.11-3.85,2.83Z"/>
          <path class="cls-3" d="M337.85,546.11l-10.2,1.97c-3.42.56-6.85,1.01-10.28,1.51l-3.53-2.67-3.47-2.82c-2.29-1.89-4.53-3.78-6.73-5.67-3.64.43-7.3.46-10.95.67-1.83.07-3.65.21-5.48.22h-5.49c-2.02,2.07-4.09,4.15-6.21,6.23-2.12,1.99-4.28,3.96-6.5,5.94l-6.06-.3c-2.02-.13-4.03-.38-6.04-.56-4.02-.41-8.06-.73-12.05-1.41"/>
          <path class="cls-81" d="M337.16,542.83c-1.82.35-3.01,2.11-2.66,3.94.36,1.82,2.16,3.01,4.04,2.64,1.88-.33,3.05-2.2,2.64-4.01-.41-1.82-2.2-2.89-4.03-2.57Z"/>
          <path class="cls-3" d="M265.16,539.02c-1.65-.05-3.3-.22-4.94-.39l-4.93-.49c-1.64-.17-3.29-.31-4.93-.5l-4.9-.73c-2.31,1.77-4.66,3.54-7.07,5.3-2.41,1.77-4.83,3.34-7.32,5.01"/>
          <path class="cls-3" d="M265.16,539.02c-1.65-.05-3.3-.22-4.94-.39l-4.93-.49c-1.64-.17-3.29-.31-4.93-.5l-4.9-.73c-2.31,1.77-4.66,3.54-7.07,5.3-2.41,1.77-4.83,3.34-7.32,5.01-4.01-.82-8.05-1.53-12-2.61"/>
          <path class="cls-81" d="M264.93,542.37c-1.83-.06-3.17-1.72-3.02-3.58.15-1.84,1.7-3.19,3.47-3.13,1.77.09,3.12,1.66,3.03,3.52-.1,1.85-1.65,3.28-3.47,3.19Z"/>
          <path class="cls-3" d="M320.3,536.7c1.93-.3,3.89-.5,5.81-.89l5.77-1.11c1.92-.38,3.85-.71,5.76-1.14l5.71-1.39"/>
          <path class="cls-3" d="M320.3,536.7c1.93-.3,3.89-.5,5.81-.89l5.77-1.11c1.92-.38,3.85-.71,5.76-1.14l5.71-1.39"/>
          <path class="cls-82" d="M319.68,533.13c-1.75.25-2.97,1.95-2.72,3.79.25,1.84,1.91,3.12,3.72,2.86,1.81-.26,3.02-1.95,2.72-3.79-.3-1.83-1.96-3.11-3.72-2.86Z"/>
          <path class="cls-3" d="M358.16,541.23c-2.62-1.41-5.18-2.81-7.71-4.26-2.55-1.53-5.05-3.06-7.5-4.61l-5.63,1.37-5.68,1.11-5.69,1.1c-1.89.37-3.82.57-5.72.87"/>
          <path class="cls-3" d="M358.16,541.23c-2.62-1.41-5.18-2.81-7.71-4.26-2.55-1.53-5.05-3.06-7.5-4.61l-5.63,1.37-5.68,1.11-5.69,1.1c-1.89.37-3.82.57-5.72.87"/>
          <path class="cls-3" d="M320.3,536.7c1.93-.3,3.89-.5,5.81-.89l5.77-1.11c1.92-.38,3.85-.71,5.76-1.14l5.71-1.39"/>
          <path class="cls-3" d="M320.3,536.7c1.93-.3,3.89-.5,5.81-.89l5.77-1.11c1.92-.38,3.85-.71,5.76-1.14l5.71-1.39"/>
          <path class="cls-82" d="M319.68,533.13c-1.75.25-2.97,1.95-2.72,3.79.25,1.84,1.91,3.12,3.72,2.86,1.81-.26,3.02-1.95,2.72-3.79-.3-1.83-1.96-3.11-3.72-2.86Z"/>
          <path class="cls-3" d="M358.16,541.23c-2.62-1.41-5.18-2.81-7.71-4.26-2.55-1.53-5.05-3.06-7.5-4.61l-5.63,1.37-5.68,1.11-5.69,1.1c-1.89.37-3.82.57-5.72.87"/>
          <path class="cls-3" d="M320.22,536.8c1.91-.3,3.83-.5,5.72-.87l5.69-1.1,5.68-1.11,5.63-1.37c2.45,1.55,4.95,3.09,7.5,4.61,2.53,1.45,5.09,2.85,7.71,4.26l6.3-1.85,6.21-2.14"/>
          <path class="cls-3" d="M308.08,550.3c-2.41.22-4.82.48-7.24.67l-7.26.34-3.63.17-1.82.08h-1.82s-7.27-.01-7.27-.01"/>
          <polyline class="cls-3" points="354.52 528.76 360.52 527 366.43 524.96"/>
          <path class="cls-3" d="M221.95,531.94c4.02,1.11,8.13,1.81,12.22,2.65"/>
        </g>
        <g>
          <path class="cls-3" d="M129.21,488.9l-7.89-6.01-7.58-6.39c-1.46.13-2.94.28-4.41.38l-4.37.22c-2.93.13-5.9.23-8.9.29"/>
          <path class="cls-3" d="M129.21,488.9l-7.89-6.01-7.58-6.39c-1.46.13-2.94.28-4.41.38l-4.37.22c-2.93.13-5.9.23-8.9.29"/>
          <path class="cls-81" d="M127.21,491.61c-1.45-1.1-1.72-3.2-.59-4.67,1.13-1.48,3.18-1.8,4.59-.73,1.41,1.07,1.67,3.16.59,4.67-1.08,1.51-3.14,1.84-4.59.73Z"/>
          <path class="cls-82" d="M104.19,489.35c-1.46-1.23-1.65-3.36-.42-4.75s3.38-1.54,4.8-.35c1.42,1.2,1.61,3.32.42,4.75-1.19,1.43-3.34,1.58-4.8.35Z"/>
          <path class="cls-3" d="M186.47,534.25c-1.64-.55-3.22-1.26-4.82-1.93l-4.79-2.01-4.79-2.02-4.68-2.25c-2.03-5.64-3.94-11.1-5.49-16.82l-4.82-2.62c-1.61-.88-3.23-1.72-4.77-2.71l-9.37-5.72c-5.6,1.25-11.35,2.35-17.27,3.36-.85-.55-1.65-1.17-2.45-1.78l-2.42-1.83-4.83-3.67c-.8-.62-1.62-1.21-2.41-1.85l-2.32-1.95-4.64-3.91"/>
          <path class="cls-81" d="M187.67,531.11c-1.76-.6-3.69.17-4.38,1.9-.69,1.71.17,3.76,1.98,4.38,1.8.65,3.77-.24,4.41-1.98.64-1.74-.26-3.67-2.01-4.3Z"/>
          <path class="cls-3" d="M129.21,488.9l-7.89-6.01-7.58-6.39c-1.46.13-2.94.28-4.41.38l-4.37.22c-2.93.13-5.9.23-8.9.29"/>
          <path class="cls-3" d="M129.21,488.9l-7.89-6.01-7.58-6.39c-1.46.13-2.94.28-4.41.38l-4.37.22c-2.93.13-5.9.23-8.9.29l-2.25-2.09c-.74-.7-1.44-1.46-2.16-2.19l-4.28-4.41"/>
          <path class="cls-81" d="M127.21,491.61c-1.45-1.1-1.72-3.2-.59-4.67,1.13-1.48,3.18-1.8,4.59-.73,1.41,1.07,1.67,3.16.59,4.67-1.08,1.51-3.14,1.84-4.59.73Z"/>
          <path class="cls-3" d="M176.81,516.88c3.59,1.57,7.22,3.04,10.83,4.57,1.79.8,3.66,1.4,5.49,2.08l5.53,2"/>
          <path class="cls-3" d="M176.81,516.88c3.59,1.57,7.22,3.04,10.83,4.57,1.79.8,3.66,1.4,5.49,2.08l5.53,2"/>
          <path class="cls-82" d="M178.22,513.54c-1.59-.77-3.53-.03-4.32,1.65-.79,1.68-.1,3.68,1.55,4.47,1.65.77,3.64-.09,4.37-1.77.75-1.72,0-3.6-1.6-4.35Z"/>
          <path class="cls-3" d="M206.2,541.15c-1.43-2.62-2.82-5.22-4.16-7.81-.67-1.3-1.33-2.57-1.97-3.89l-1.86-4-5.45-1.97c-1.81-.66-3.64-1.28-5.41-2.06-3.55-1.51-7.14-2.95-10.67-4.51"/>
          <path class="cls-3" d="M206.2,541.15c-1.43-2.62-2.82-5.22-4.16-7.81-.67-1.3-1.33-2.57-1.97-3.89l-1.86-4-5.45-1.97c-1.81-.66-3.64-1.28-5.41-2.06-3.55-1.51-7.14-2.95-10.67-4.51"/>
          <path class="cls-3" d="M176.81,516.88c3.59,1.57,7.22,3.04,10.83,4.57,1.79.8,3.66,1.4,5.49,2.08l5.53,2"/>
          <path class="cls-3" d="M176.81,516.88c3.59,1.57,7.22,3.04,10.83,4.57,1.79.8,3.66,1.4,5.49,2.08l5.53,2"/>
          <path class="cls-82" d="M178.22,513.54c-1.59-.77-3.53-.03-4.32,1.65-.79,1.68-.1,3.68,1.55,4.47,1.65.77,3.64-.09,4.37-1.77.75-1.72,0-3.6-1.6-4.35Z"/>
          <path class="cls-3" d="M206.2,541.15c-1.43-2.62-2.82-5.22-4.16-7.81-.67-1.3-1.33-2.57-1.97-3.89l-1.86-4-5.45-1.97c-1.81-.66-3.64-1.28-5.41-2.06-3.55-1.51-7.14-2.95-10.67-4.51"/>
          <path class="cls-3" d="M176.69,516.91c3.53,1.56,7.11,3,10.67,4.51,1.76.79,3.59,1.41,5.41,2.06l5.45,1.97,1.86,4c.64,1.32,1.3,2.59,1.97,3.89,1.34,2.59,2.73,5.19,4.16,7.81,4.16,1.37,8.45,2.31,12.69,3.41"/>
          <path class="cls-3" d="M159.16,521.68l-6.39-3.47-3.19-1.74-1.6-.87-1.55-.94-6.2-3.79c-2.06-1.28-4.16-2.48-6.14-3.89"/>
          <path class="cls-3" d="M209.88,528.69c3.96,1.31,8.04,2.2,12.07,3.25"/>
          <path class="cls-3" d="M96.65,459.63c2.93,2.97,5.73,6.06,8.85,8.83"/>
        </g>
        <g>
          <path class="cls-3" d="M41.88,373.31c-2.2-6.23-4.48-12.44-6.23-18.83-2.58-1.36-5.2-2.76-7.77-4.23-2.51-1.48-5.04-3.01-7.58-4.59"/>
          <path class="cls-3" d="M41.88,373.31c-2.2-6.23-4.48-12.44-6.23-18.83-2.58-1.36-5.2-2.76-7.77-4.23-2.51-1.48-5.04-3.01-7.58-4.59"/>
          <path class="cls-81" d="M38.74,374.5c-.67-1.7.31-3.63,2.04-4.25,1.76-.64,3.59.23,4.25,1.88.66,1.64-.21,3.53-1.93,4.21-1.73.68-3.68-.14-4.36-1.84Z"/>
          <path class="cls-82" d="M20.66,360.12c-.54-1.84.47-3.73,2.26-4.23,1.79-.5,3.66.54,4.18,2.32.52,1.78-.49,3.68-2.26,4.23-1.77.55-3.65-.48-4.19-2.32Z"/>
          <path class="cls-3" d="M65.56,442.4c-2.01-2.82-4.06-5.61-6.04-8.46l-5.64-8.73c.59-2.87,1.37-5.81,2.12-8.66.76-2.86,1.55-5.68,2.36-8.46-.45-.8-.94-1.57-1.36-2.38l-1.26-2.44-2.52-4.87c-1.75-3.21-3.18-6.58-4.72-9.9-2.72-.98-5.54-1.97-8.23-3.08-2.69-1.1-5.39-2.25-8.12-3.45-.74-1.88-1.53-3.74-2.23-5.64l-1.99-5.73-1.98-5.73-1.72-5.81"/>
          <path class="cls-81" d="M68.26,440.41c-1.08-1.51-3.19-1.86-4.7-.78-1.51,1.08-1.83,3.21-.72,4.76,1.12,1.55,3.21,1.9,4.7.77,1.47-1.12,1.79-3.25.71-4.76Z"/>
          <path class="cls-3" d="M41.88,373.31c-2.2-6.23-4.48-12.44-6.23-18.83-2.58-1.36-5.2-2.76-7.77-4.23-2.51-1.48-5.04-3.01-7.58-4.59"/>
          <path class="cls-3" d="M41.88,373.31c-2.2-6.23-4.48-12.44-6.23-18.83-2.58-1.36-5.2-2.76-7.77-4.23-2.51-1.48-5.04-3.01-7.58-4.59l-1.45-5.97-1.16-6.03"/>
          <path class="cls-81" d="M38.74,374.5c-.67-1.7.31-3.63,2.04-4.25,1.76-.64,3.59.23,4.25,1.88.66,1.64-.21,3.53-1.93,4.21-1.73.68-3.68-.14-4.36-1.84Z"/>
          <path class="cls-3" d="M66.84,422.54l3.19,4.93,3.43,4.77,3.43,4.77c1.16,1.58,2.42,3.08,3.63,4.62"/>
          <path class="cls-3" d="M66.84,422.54l3.19,4.93,3.43,4.77,3.43,4.77c1.16,1.58,2.42,3.08,3.63,4.62"/>
          <path class="cls-82" d="M69.83,420.49c-.96-1.48-3.01-1.89-4.59-.9-1.57.99-2.04,3.03-1.05,4.56.99,1.53,3.04,1.94,4.59.9s2.01-3.07,1.06-4.56Z"/>
          <path class="cls-3" d="M78.42,458.88c.29-5.85,1-11.8,1.76-17.53-1.18-1.53-2.45-2.99-3.56-4.56l-3.38-4.7-3.37-4.71-3.14-4.86"/>
          <path class="cls-3" d="M78.42,458.88c.29-5.85,1-11.8,1.76-17.53-1.18-1.53-2.45-2.99-3.56-4.56l-3.38-4.7-3.37-4.71-3.14-4.86"/>
          <path class="cls-3" d="M66.84,422.54l3.19,4.93,3.43,4.77,3.43,4.77c1.16,1.58,2.42,3.08,3.63,4.62"/>
          <path class="cls-3" d="M66.84,422.54l3.19,4.93,3.43,4.77,3.43,4.77c1.16,1.58,2.42,3.08,3.63,4.62"/>
          <path class="cls-82" d="M69.83,420.49c-.96-1.48-3.01-1.89-4.59-.9-1.57.99-2.04,3.03-1.05,4.56.99,1.53,3.04,1.94,4.59.9s2.01-3.07,1.06-4.56Z"/>
          <path class="cls-3" d="M78.42,458.88c.29-5.85,1-11.8,1.76-17.53-1.18-1.53-2.45-2.99-3.56-4.56l-3.38-4.7-3.37-4.71-3.14-4.86"/>
          <path class="cls-3" d="M66.72,422.51l3.14,4.86,3.37,4.71,3.38,4.7c1.12,1.58,2.38,3.04,3.56,4.56-.76,5.73-1.47,11.68-1.76,17.53,2.91,3.27,5.72,6.64,8.84,9.72"/>
          <path class="cls-3" d="M49.4,417.05l-1.82-3.15c-.61-1.05-1.22-2.09-1.76-3.18l-3.34-6.46-1.67-3.23c-.55-1.08-1.02-2.2-1.54-3.29l-3.03-6.61"/>
          <path class="cls-3" d="M88.24,450.38c2.77,3.11,5.43,6.33,8.41,9.25"/>
          <polyline class="cls-3" points="30.41 331.05 31.6 337.19 33.08 343.26"/>
        </g>
        <g>
          <path class="cls-3" d="M30.91,228.83c.57-3.26,1.5-6.43,2.28-9.65l1.21-4.81c.41-1.6.95-3.17,1.41-4.75-1.42-2.54-2.82-5.12-4.2-7.75-.68-1.31-1.41-2.65-2.04-3.97l-1.9-4"/>
          <path class="cls-3" d="M30.91,228.83c.57-3.26,1.5-6.43,2.28-9.65l1.21-4.81c.41-1.6.95-3.17,1.41-4.75-1.42-2.54-2.82-5.12-4.2-7.75-.68-1.31-1.41-2.65-2.04-3.97l-1.9-4"/>
          <path class="cls-81" d="M27.62,228.13c.36-1.79,2.1-2.91,3.94-2.49,1.78.41,2.99,2.16,2.64,3.89-.35,1.74-2.1,2.85-3.92,2.49-1.82-.36-3.01-2.1-2.65-3.89Z"/>
          <path class="cls-82" d="M20.14,206.24c.56-1.83,2.45-2.87,4.22-2.33s2.77,2.43,2.23,4.21c-.54,1.78-2.44,2.82-4.21,2.33-1.81-.5-2.79-2.38-2.24-4.21Z"/>
          <path class="cls-3" d="M13.51,299.76l-.48-10.38c-.1-3.46-.02-6.93-.04-10.39l3.15-3.12c1.05-1.03,2.18-2.04,3.27-3.04,2.2-2,4.39-3.95,6.59-5.85.1-3.66.55-7.29.9-10.93l.55-5.46.81-5.43c-1.77-2.3-3.52-4.64-5.27-7.04-1.74-2.39-3.32-4.81-4.97-7.28.8-3.96,1.52-7.95,2.59-11.85l1.48-5.88.75-2.94.89-2.9"/>
          <path class="cls-81" d="M16.86,299.54c-.09-1.85-1.66-3.28-3.51-3.19-1.85.09-3.28,1.72-3.19,3.63.06,1.91,1.78,3.33,3.61,3.18,1.87-.15,3.15-1.76,3.1-3.62Z"/>
          <path class="cls-3" d="M30.91,228.83c.57-3.26,1.5-6.43,2.28-9.65l1.21-4.81c.41-1.6.95-3.17,1.41-4.75-1.42-2.54-2.82-5.12-4.2-7.75-.68-1.31-1.41-2.65-2.04-3.97l-1.9-4"/>
          <path class="cls-3" d="M30.91,228.83c.57-3.26,1.5-6.43,2.28-9.65l1.21-4.81c.41-1.6.95-3.17,1.41-4.75-1.42-2.54-2.82-5.12-4.2-7.75-.68-1.31-1.41-2.65-2.04-3.97l-1.9-4,2.09-5.78,1.04-2.89c.35-.96.78-1.89,1.16-2.84"/>
          <path class="cls-81" d="M27.62,228.13c.36-1.79,2.1-2.91,3.94-2.49,1.78.41,2.99,2.16,2.64,3.89-.35,1.74-2.1,2.85-3.92,2.49-1.82-.36-3.01-2.1-2.65-3.89Z"/>
          <path class="cls-3" d="M25.32,283.73c-.09,3.92.17,7.83.34,11.74.11,1.96.13,3.92.32,5.87l.56,5.85"/>
          <path class="cls-3" d="M25.32,283.73c-.09,3.92.17,7.83.34,11.74.11,1.96.13,3.92.32,5.87l.56,5.85"/>
          <path class="cls-82" d="M28.94,283.61c0-1.77-1.5-3.22-3.36-3.23-1.86-.02-3.36,1.45-3.37,3.27,0,1.82,1.5,3.27,3.35,3.23,1.86-.04,3.36-1.5,3.37-3.27Z"/>
          <path class="cls-3" d="M15.47,320.56c1.76-2.39,3.53-4.74,5.31-7.03,1.86-2.31,3.75-4.56,5.63-6.77l-.55-5.77c-.15-1.92-.2-3.86-.3-5.78l-.27-5.78-.07-1.45v-1.45s0-2.9,0-2.9"/>
          <path class="cls-3" d="M15.47,320.56c1.76-2.39,3.53-4.74,5.31-7.03,1.86-2.31,3.75-4.56,5.63-6.77l-.55-5.77c-.15-1.92-.2-3.86-.3-5.78l-.27-5.78-.07-1.45v-1.45s0-2.9,0-2.9"/>
          <path class="cls-3" d="M25.32,283.73c-.09,3.92.17,7.83.34,11.74.11,1.96.13,3.92.32,5.87l.56,5.85"/>
          <path class="cls-3" d="M25.32,283.73c-.09,3.92.17,7.83.34,11.74.11,1.96.13,3.92.32,5.87l.56,5.85"/>
          <path class="cls-82" d="M28.94,283.61c0-1.77-1.5-3.22-3.36-3.23-1.86-.02-3.36,1.45-3.37,3.27,0,1.82,1.5,3.27,3.35,3.23,1.86-.04,3.36-1.5,3.37-3.27Z"/>
          <path class="cls-3" d="M15.47,320.56c1.76-2.39,3.53-4.74,5.31-7.03,1.86-2.31,3.75-4.56,5.63-6.77l-.55-5.77c-.15-1.92-.2-3.86-.3-5.78l-.27-5.78-.07-1.45v-1.45s0-2.9,0-2.9"/>
          <path class="cls-3" d="M25.24,283.63v2.9s0,1.45,0,1.45l.07,1.45.27,5.78c.1,1.93.15,3.86.3,5.78l.55,5.77c-1.88,2.21-3.77,4.47-5.63,6.77-1.78,2.3-3.55,4.64-5.31,7.03l.94,6.5,1.24,6.45"/>
          <path class="cls-3" d="M13.6,269.69l.37-7.26.71-7.24c.27-2.41.42-4.83.78-7.23l1.07-7.19"/>
          <polyline class="cls-3" points="28.33 318.72 29.22 324.91 30.41 331.05"/>
          <path class="cls-3" d="M44.07,187.07c-.39.97-.83,1.91-1.18,2.89l-1.06,2.94-2.12,5.88"/>
        </g>
        <g>
          <path class="cls-3" d="M99.8,101.33l7.11-6.91c1.16-1.18,2.45-2.22,3.68-3.32l3.72-3.27c.25-5.92.91-11.66,1.64-17.63"/>
          <path class="cls-3" d="M99.8,101.33l7.11-6.91c1.16-1.18,2.45-2.22,3.68-3.32l3.72-3.27c.25-5.92.91-11.66,1.64-17.63"/>
          <path class="cls-81" d="M97.42,98.97c1.31-1.27,3.42-1.23,4.72.1,1.3,1.33,1.32,3.4.05,4.63-1.3,1.21-3.3,1.27-4.66-.03-1.32-1.27-1.46-3.45-.12-4.7Z"/>
          <path class="cls-82" d="M102.97,76.54c1.44-1.26,3.58-1.14,4.77.28,1.2,1.42,1.04,3.56-.36,4.79-1.4,1.23-3.53,1.1-4.77-.28-1.24-1.38-1.08-3.52.36-4.79Z"/>
          <path class="cls-3" d="M46.89,151.65c.84-1.51,1.62-3.06,2.51-4.54l2.71-4.43,2.71-4.43,1.36-2.22,1.46-2.15c2.95-.6,5.87-1.16,8.76-1.68l4.32-.75,2.14-.35,2.19-.3,6.64-8.74c2.31-2.83,4.7-5.6,7.05-8.41-.13-1.45-.29-2.94-.37-4.37l-.22-4.35c-.13-2.92-.23-5.87-.29-8.86l2.07-2.22c.71-.72,1.45-1.41,2.17-2.12l4.35-4.23c2.85-2.88,5.93-5.5,8.96-8.17"/>
          <path class="cls-81" d="M49.83,153.28c.89-1.63.3-3.7-1.31-4.63-1.61-.93-3.65-.32-4.57,1.36-.91,1.68-.33,3.75,1.31,4.63,1.64.88,3.68.27,4.57-1.36Z"/>
          <path class="cls-3" d="M99.8,101.33l7.11-6.91c1.16-1.18,2.45-2.22,3.68-3.32l3.72-3.27c.25-5.92.91-11.66,1.64-17.63"/>
          <path class="cls-3" d="M99.8,101.33l7.11-6.91c1.16-1.18,2.45-2.22,3.68-3.32l3.72-3.27c.25-5.92.91-11.66,1.64-17.63l2.4-1.91c.79-.65,1.6-1.27,2.45-1.86l4.99-3.58"/>
          <path class="cls-81" d="M97.42,98.97c1.31-1.27,3.42-1.23,4.72.1,1.3,1.33,1.32,3.4.05,4.63-1.3,1.21-3.3,1.27-4.66-.03-1.32-1.27-1.46-3.45-.12-4.7Z"/>
          <path class="cls-3" d="M65.44,144.53c-2.03,3.35-4.12,6.67-6.1,10.05l-5.62,10.33"/>
          <path class="cls-3" d="M65.44,144.53c-2.03,3.35-4.12,6.67-6.1,10.05l-5.62,10.33"/>
          <path class="cls-82" d="M68.55,146.39c.46-.75.56-1.65.36-2.47-.18-.81-.68-1.57-1.46-2.08-.78-.51-1.69-.67-2.53-.51-.83.17-1.57.67-2.05,1.45-.95,1.56-.44,3.61,1.14,4.58s3.61.54,4.53-.97Z"/>
          <path class="cls-3" d="M37.2,170.16c5.64-2.07,11.11-4.01,16.66-5.68l5.54-10.18c1.97-3.32,4.02-6.6,6.02-9.9"/>
          <path class="cls-3" d="M37.2,170.16c5.64-2.07,11.11-4.01,16.66-5.68l5.54-10.18c1.97-3.32,4.02-6.6,6.02-9.9"/>
          <path class="cls-3" d="M65.44,144.53c-2.03,3.35-4.12,6.67-6.1,10.05l-5.62,10.33"/>
          <path class="cls-3" d="M65.44,144.53c-2.03,3.35-4.12,6.67-6.1,10.05l-5.62,10.33"/>
          <path class="cls-82" d="M68.55,146.39c.46-.75.56-1.65.36-2.47-.18-.81-.68-1.57-1.46-2.08-.78-.51-1.69-.67-2.53-.51-.83.17-1.57.67-2.05,1.45-.95,1.56-.44,3.61,1.14,4.58s3.61.54,4.53-.97Z"/>
          <path class="cls-3" d="M37.2,170.16c5.64-2.07,11.11-4.01,16.66-5.68l5.54-10.18c1.97-3.32,4.02-6.6,6.02-9.9"/>
          <path class="cls-3" d="M65.42,144.41c-2,3.3-4.05,6.58-6.02,9.9l-5.54,10.18c-5.55,1.67-11.02,3.61-16.66,5.68-.99,1.95-1.79,4-2.64,6.01l-2.54,6.06"/>
          <path class="cls-3" d="M63.16,126.38l1.03-1.5,1.09-1.45,2.2-2.9,4.4-5.79c3.05-3.77,6.22-7.44,9.34-11.15"/>
          <path class="cls-3" d="M49.01,175.58c-.95,1.86-1.7,3.8-2.52,5.72l-2.42,5.77"/>
          <path class="cls-3" d="M133.46,73.34l-5.08,3.65c-1.7,1.21-3.28,2.57-4.93,3.85"/>
        </g>
        <g>
          <path class="cls-3" d="M226.71,31.4c3.22-.73,6.49-1.28,9.73-1.93,3.23-.69,6.52-1.1,9.79-1.58,1.71-2.36,3.47-4.74,5.28-7.1,1.82-2.28,3.69-4.56,5.61-6.85"/>
          <path class="cls-3" d="M226.71,31.4c3.22-.73,6.49-1.28,9.73-1.93,3.23-.69,6.52-1.1,9.79-1.58,1.71-2.36,3.47-4.74,5.28-7.1,1.82-2.28,3.69-4.56,5.61-6.85"/>
          <path class="cls-81" d="M225.98,28.12c1.77-.45,3.54.82,3.91,2.61.38,1.84-.74,3.51-2.46,3.95-1.72.42-3.46-.71-3.89-2.51-.43-1.81.66-3.62,2.43-4.05Z"/>
          <path class="cls-82" d="M242.78,12.26c1.89-.27,3.63,1,3.87,2.84.24,1.84-1.05,3.55-2.89,3.81-1.84.26-3.57-1.01-3.87-2.84-.3-1.83,1-3.54,2.89-3.81Z"/>
          <path class="cls-3" d="M154.95,45.02l9.23-4.77,9.45-4.33c1.39.53,2.76,1.01,4.14,1.59l4.12,1.73c2.73,1.16,5.41,2.35,8.04,3.55l2.55-1.02,2.59-.9,5.18-1.8c3.43-1.27,6.96-2.24,10.47-3.28,1.36-2.56,2.75-5.19,4.21-7.72,1.47-2.5,2.99-5.02,4.56-7.54l5.9-1.42,5.96-1.15,5.96-1.15c1.99-.34,4-.59,6-.89"/>
          <path class="cls-81" d="M156.54,47.98c1.65-.85,2.29-2.88,1.44-4.53-.85-1.65-2.92-2.27-4.62-1.39-.85.44-1.44,1.17-1.7,1.99-.25.83-.17,1.77.27,2.58.45.82,1.18,1.35,2.01,1.59.84.25,1.76.2,2.59-.23Z"/>
          <path class="cls-3" d="M226.71,31.4c3.22-.73,6.49-1.28,9.73-1.93,3.23-.69,6.52-1.1,9.79-1.58,1.71-2.36,3.47-4.74,5.28-7.1,1.82-2.28,3.69-4.56,5.61-6.85"/>
          <path class="cls-3" d="M226.71,31.4c3.22-.73,6.49-1.28,9.73-1.93,3.23-.69,6.52-1.1,9.79-1.58,1.71-2.36,3.47-4.74,5.28-7.1,1.82-2.28,3.69-4.56,5.61-6.85l6.11-.58c2.04-.13,4.09-.2,6.13-.31"/>
          <path class="cls-81" d="M225.98,28.12c1.77-.45,3.54.82,3.91,2.61.38,1.84-.74,3.51-2.46,3.95-1.72.42-3.46-.71-3.89-2.51-.43-1.81.66-3.62,2.43-4.05Z"/>
          <path class="cls-3" d="M174.43,49.12c-1.78.83-3.57,1.6-5.33,2.47l-5.22,2.7-5.22,2.7-5.08,2.95"/>
          <path class="cls-3" d="M174.43,49.12c-1.78.83-3.57,1.6-5.33,2.47l-5.22,2.7-5.22,2.7-5.08,2.95"/>
          <path class="cls-82" d="M176.03,52.38c1.61-.74,2.3-2.71,1.55-4.41-.75-1.7-2.71-2.46-4.36-1.7-1.66.76-2.35,2.73-1.55,4.4.8,1.67,2.76,2.43,4.37,1.7Z"/>
          <path class="cls-3" d="M136.82,55.4c2.91.62,5.74,1.2,8.61,1.94,2.87.74,5.7,1.51,8.49,2.31,1.67-.96,3.33-1.96,5.02-2.89l5.14-2.66,5.14-2.66c1.74-.84,3.51-1.61,5.26-2.43"/>
          <path class="cls-3" d="M136.82,55.4c2.91.62,5.74,1.2,8.61,1.94,2.87.74,5.7,1.51,8.49,2.31,1.67-.96,3.33-1.96,5.02-2.89l5.14-2.66,5.14-2.66c1.74-.84,3.51-1.61,5.26-2.43"/>
          <path class="cls-3" d="M174.43,49.12c-1.78.83-3.57,1.6-5.33,2.47l-5.22,2.7-5.22,2.7-5.08,2.95"/>
          <path class="cls-3" d="M174.43,49.12c-1.78.83-3.57,1.6-5.33,2.47l-5.22,2.7-5.22,2.7-5.08,2.95"/>
          <path class="cls-82" d="M176.03,52.38c1.61-.74,2.3-2.71,1.55-4.41-.75-1.7-2.71-2.46-4.36-1.7-1.66.76-2.35,2.73-1.55,4.4.8,1.67,2.76,2.43,4.37,1.7Z"/>
          <path class="cls-3" d="M136.82,55.4c2.91.62,5.74,1.2,8.61,1.94,2.87.74,5.7,1.51,8.49,2.31,1.67-.96,3.33-1.96,5.02-2.89l5.14-2.66,5.14-2.66c1.74-.84,3.51-1.61,5.26-2.43"/>
          <path class="cls-3" d="M174.48,49.01c-1.75.81-3.52,1.59-5.26,2.43l-5.14,2.66-5.14,2.66c-1.69.93-3.34,1.93-5.02,2.89-2.79-.79-5.62-1.56-8.49-2.31-2.87-.74-5.69-1.31-8.61-1.94l-5.52,3.57c-1.84,1.18-3.58,2.53-5.37,3.78"/>
          <path class="cls-3" d="M182.35,32.64c2.26-.88,4.48-1.85,6.77-2.66l6.87-2.38c4.55-1.68,9.25-2.91,13.89-4.31"/>
          <path class="cls-3" d="M143.82,66.34l-5.25,3.39c-1.76,1.12-3.4,2.41-5.11,3.6"/>
          <path class="cls-3" d="M270.17,26.02c-2.08.11-4.17.16-6.24.32l-6.23.59"/>
        </g>
        <g>
          <path class="cls-3" d="M371.25,41.13c1.55.57,3.12,1.1,4.66,1.7l4.57,1.92,4.57,1.92,2.29.96c.75.34,1.49.71,2.24,1.07,2.7-1.02,5.45-2.03,8.25-3.01l4.22-1.46c1.42-.49,2.85-.96,4.26-1.36"/>
          <path class="cls-3" d="M371.25,41.13c1.55.57,3.12,1.1,4.66,1.7l4.57,1.92,4.57,1.92,2.29.96c.75.34,1.49.71,2.24,1.07,2.7-1.02,5.45-2.03,8.25-3.01l4.22-1.46c1.42-.49,2.85-.96,4.26-1.36"/>
          <path class="cls-81" d="M372.42,37.98c1.72.62,2.57,2.53,1.9,4.26-.67,1.73-2.56,2.65-4.23,2.05-1.66-.6-2.51-2.51-1.9-4.26.62-1.75,2.51-2.67,4.23-2.05Z"/>
          <path class="cls-82" d="M395.17,33.67c1.73.83,2.48,2.86,1.69,4.54-.79,1.68-2.79,2.39-4.47,1.58-1.66-.83-2.49-2.71-1.73-4.44.73-1.68,2.8-2.53,4.51-1.68Z"/>
          <path class="cls-3" d="M303.55,13.73l10.34,1.02c1.73.14,3.44.43,5.15.68l5.14.77c3.57,4.68,6.89,9.7,10.02,14.59,1.79.37,3.59.68,5.37,1.11l5.32,1.34,5.32,1.34c1.78.44,3.5,1.04,5.26,1.56,5.04-2.79,10.31-5.68,15.64-8.09l5.71,2.06,2.85,1.03c.95.36,1.87.77,2.8,1.15,3.72,1.59,7.48,3.07,11.16,4.75"/>
          <path class="cls-81" d="M303.29,17.08c1.85.18,3.48-1.17,3.66-3.02.17-1.85-1.23-3.5-3.13-3.69-1.9-.18-3.55,1.3-3.67,3.14-.12,1.87,1.3,3.39,3.14,3.57Z"/>
          <path class="cls-3" d="M371.25,41.13c1.55.57,3.12,1.1,4.66,1.7l4.57,1.92,4.57,1.92,2.29.96c.75.34,1.49.71,2.24,1.07,2.7-1.02,5.45-2.03,8.25-3.01l4.22-1.46c1.42-.49,2.85-.96,4.26-1.36"/>
          <path class="cls-3" d="M371.25,41.13c1.55.57,3.12,1.1,4.66,1.7l4.57,1.92,4.57,1.92,2.29.96c.75.34,1.49.71,2.24,1.07,2.7-1.02,5.45-2.03,8.25-3.01l4.22-1.46c1.42-.49,2.85-.96,4.26-1.36l10.78,5.87"/>
          <path class="cls-81" d="M372.42,37.98c1.72.62,2.57,2.53,1.9,4.26-.67,1.73-2.56,2.65-4.23,2.05-1.66-.6-2.51-2.51-1.9-4.26.62-1.75,2.51-2.67,4.23-2.05Z"/>
          <path class="cls-3" d="M317.73,27.72c-3.86-.67-7.78-.91-11.67-1.33l-2.92-.29-1.46-.14-1.47-.07-5.87-.29"/>
          <path class="cls-3" d="M317.73,27.72c-3.86-.67-7.78-.91-11.67-1.33l-2.92-.29-1.46-.14-1.47-.07-5.87-.29"/>
          <path class="cls-82" d="M317.32,31.32c1.75.26,3.39-1.02,3.68-2.85.28-1.83-.95-3.54-2.75-3.81-1.8-.27-3.45,1.01-3.68,2.85-.23,1.84,1.01,3.55,2.75,3.81Z"/>
          <path class="cls-3" d="M282.67,12.73c2.12,2.09,4.19,4.18,6.21,6.26,2.02,2.13,3.98,4.36,5.9,6.53l5.78.29c1.93.08,3.84.35,5.77.52,3.84.41,7.69.67,11.5,1.32"/>
          <path class="cls-3" d="M282.67,12.73c2.12,2.09,4.19,4.18,6.21,6.26,2.02,2.13,3.98,4.36,5.9,6.53l5.78.29c1.93.08,3.84.35,5.77.52,3.84.41,7.69.67,11.5,1.32"/>
          <path class="cls-3" d="M317.73,27.72c-3.86-.67-7.78-.91-11.67-1.33l-2.92-.29-1.46-.14-1.47-.07-5.87-.29"/>
          <path class="cls-3" d="M317.73,27.72c-3.86-.67-7.78-.91-11.67-1.33l-2.92-.29-1.46-.14-1.47-.07-5.87-.29"/>
          <path class="cls-82" d="M317.32,31.32c1.75.26,3.39-1.02,3.68-2.85.28-1.83-.95-3.54-2.75-3.81-1.8-.27-3.45,1.01-3.68,2.85-.23,1.84,1.01,3.55,2.75,3.81Z"/>
          <path class="cls-3" d="M282.67,12.73c2.12,2.09,4.19,4.18,6.21,6.26,2.02,2.13,3.98,4.36,5.9,6.53l5.78.29c1.93.08,3.84.35,5.77.52,3.84.41,7.69.67,11.5,1.32"/>
          <path class="cls-3" d="M317.83,27.65c-3.81-.66-7.66-.91-11.5-1.32-1.92-.16-3.84-.44-5.77-.52l-5.78-.29c-1.92-2.17-3.88-4.4-5.9-6.53-2.02-2.09-4.09-4.18-6.21-6.26-2.19,0-4.38-.03-6.57.01l-6.56.31"/>
          <path class="cls-3" d="M333.3,18.13l7.13,1.43c2.38.48,4.71,1.15,7.07,1.72l7.05,1.78,6.96,2.12"/>
          <path class="cls-3" d="M282.67,25.72c-2.08,0-4.17-.03-6.25.01l-6.25.29"/>
          <line class="cls-3" x1="410.75" y1="60.06" x2="399.76" y2="54.08"/>
        </g>
      </g>
      <g>
        <g>
          <g>
            <polygon class="cls-22" points="198.32 277.91 236.86 262.53 232.67 255.69 198.32 277.91"/>
            <polygon class="cls-78" points="236.86 262.53 258.25 209.94 232.67 255.69 236.86 262.53"/>
            <polygon class="cls-75" points="232.67 255.69 258.25 209.94 240.19 201.21 232.67 255.69"/>
            <polygon class="cls-79" points="240.19 201.21 267.58 184.66 258.25 209.94 240.19 201.21"/>
            <polygon class="cls-73" points="267.58 184.66 302.19 195.49 258.25 209.94 267.58 184.66"/>
            <polygon class="cls-80" points="258.25 209.94 307.31 217.77 302.19 195.49 258.25 209.94"/>
            <polygon class="cls-76" points="307.31 217.77 321.45 162.69 302.19 195.49 307.31 217.77"/>
            <polygon class="cls-77" points="307.31 217.77 340.72 173.22 321.45 162.69 307.31 217.77"/>
            <polygon class="cls-74" points="321.45 162.69 352.15 155.46 340.72 173.22 321.45 162.69"/>
            <polygon class="cls-42" points="340.72 173.22 381.11 202.25 352.15 155.46 340.72 173.22"/>
            <polygon class="cls-40" points="352.15 155.46 386.07 176.83 381.11 202.25 352.15 155.46"/>
            <polygon class="cls-41" points="381.11 202.25 404.84 190.93 386.07 176.83 381.11 202.25"/>
            <polygon class="cls-39" points="386.07 176.83 415.71 143.09 404.84 190.93 386.07 176.83"/>
            <polygon class="cls-48" points="386.07 176.83 415.71 143.09 394.99 141.41 386.07 176.83"/>
            <polygon class="cls-44" points="394.99 141.41 410.67 121.25 415.71 143.09 394.99 141.41"/>
            <polygon class="cls-37" points="410.67 121.25 436.43 142.53 415.71 143.09 410.67 121.25"/>
            <polygon class="cls-38" points="410.67 121.25 434.19 116.77 436.43 142.53 410.67 121.25"/>
            <polygon class="cls-45" points="434.19 116.77 457.92 131.83 436.43 142.53 434.19 116.77"/>
          </g>
          <polygon class="cls-36" points="212.44 343.04 281.46 322.81 251.87 390.71 212.44 343.04"/>
          <polygon class="cls-1" points="281.46 322.81 242.34 319.2 212.44 343.04 281.46 322.81"/>
          <polygon class="cls-1" points="306.04 405.87 342.66 400.96 353.41 353.66 306.04 405.87"/>
          <polygon class="cls-1" points="387.09 345.06 335.23 321.16 387.09 316.55 387.09 345.06"/>
          <polygon class="cls-1" points="353.41 353.66 335.23 321.16 387.09 345.06 353.41 353.66"/>
          <polygon class="cls-46" points="399.46 310.36 380.3 303.94 396.24 302.83 399.46 310.36"/>
          <polygon class="cls-43" points="401.88 295.03 390.94 290.89 399.73 285.34 401.88 295.03"/>
          <polygon class="cls-47" points="414.26 280.5 399.73 285.34 406.73 252.26 414.26 280.5"/>
          <polygon class="cls-49" points="388.84 229.42 408.34 210.57 406.73 252.26 388.84 229.42"/>
          <polygon class="cls-61" points="350.72 250.12 365.74 245.09 369.23 257.11 350.72 250.12"/>
          <polygon class="cls-28" points="369.23 257.11 381.71 242.16 365.74 245.09 369.23 257.11"/>
          <line class="cls-1" x1="186.68" y1="309.96" x2="102.27" y2="303.84"/>
          <line class="cls-1" x1="394.99" y1="141.41" x2="386.07" y2="176.83"/>
          <polyline class="cls-1" points="186.68 309.96 248.84 301 186.68 309.96 236.86 262.53 248.84 301"/>
          <polygon class="cls-5" points="236.86 262.53 307.31 217.77 288.47 270.28 236.86 262.53"/>
          <line class="cls-1" x1="199.7" y1="154.33" x2="110.67" y2="190.73"/>
          <polygon class="cls-1" points="240.19 201.21 199.7 154.33 267.58 184.66 248.42 98.33 199.7 154.33 198.32 277.91 78.19 247.84 102.27 303.84 198.32 277.91 186.68 309.96 102.27 303.84 78.19 247.84 110.67 190.73 198.96 211.85 240.19 201.21"/>
          <polygon class="cls-1" points="267.58 184.66 336.04 93.42 321.45 162.69 267.58 184.66"/>
          <polygon class="cls-1" points="102.27 303.84 186.68 309.96 198.32 277.91 78.19 247.84 102.27 303.84"/>
          <polygon class="cls-1" points="336.04 93.42 394.99 141.41 352.15 155.46 336.04 93.42"/>
          <polygon class="cls-1" points="267.58 184.66 199.7 154.33 240.19 201.21 267.58 184.66"/>
          <polygon class="cls-1" points="198.96 211.85 199.7 154.33 110.67 190.73 198.96 211.85"/>
          <polygon class="cls-1" points="336.04 93.42 248.42 98.33 267.58 184.66 336.04 93.42"/>
          <polygon class="cls-1" points="352.15 155.46 394.99 141.41 336.04 93.42 352.15 155.46"/>
          <polygon class="cls-1" points="212.44 343.04 242.34 319.2 281.46 322.81 212.44 343.04"/>
          <polygon class="cls-60" points="306.04 405.87 342.66 400.96 353.41 353.66 306.04 405.87"/>
          <polygon class="cls-62" points="353.41 353.66 387.09 345.06 335.23 321.16 353.41 353.66"/>
          <polygon class="cls-27" points="335.23 321.16 387.09 316.55 387.09 345.06 335.23 321.16"/>
          <polygon class="cls-26" points="212.44 343.04 242.34 319.2 281.46 322.81 212.44 343.04"/>
          <polygon class="cls-24" points="236.86 262.53 258.25 209.94 307.31 217.77 236.86 262.53"/>
          <polygon class="cls-1" points="236.86 262.53 248.84 301 288.47 270.28 236.86 262.53"/>
          <polygon class="cls-1" points="186.68 309.96 248.84 301 236.86 262.53 186.68 309.96"/>
          <polygon class="cls-1" points="186.68 309.96 198.32 277.91 236.86 262.53 186.68 309.96"/>
          <polygon class="cls-1" points="248.84 301 288.47 270.28 236.86 262.53 248.84 301"/>
          <polygon class="cls-35" points="288.47 270.28 248.84 301 236.86 262.53 288.47 270.28"/>
          <polygon class="cls-29" points="242.34 319.2 248.84 301 281.46 322.81 242.34 319.2"/>
          <polygon class="cls-25" points="386.07 176.83 394.99 141.41 352.15 155.46 386.07 176.83"/>
          <polygon class="cls-32" points="352.15 155.46 336.04 93.42 394.99 141.41 352.15 155.46"/>
          <polygon class="cls-31" points="352.15 155.46 336.04 93.42 321.45 162.69 352.15 155.46"/>
          <polygon class="cls-23" points="321.45 162.69 336.04 93.42 267.58 184.66 321.45 162.69"/>
          <polygon class="cls-30" points="321.45 162.69 302.19 195.49 267.58 184.66 321.45 162.69"/>
          <polygon class="cls-34" points="267.58 184.66 336.04 93.42 248.42 98.33 267.58 184.66"/>
          <polygon class="cls-33" points="267.58 184.66 248.42 98.33 199.7 154.33 267.58 184.66"/>
          <polygon class="cls-53" points="267.58 184.66 240.19 201.21 199.7 154.33 267.58 184.66"/>
          <polygon class="cls-50" points="199.7 154.33 198.96 211.85 240.19 201.21 199.7 154.33"/>
          <polygon class="cls-51" points="240.19 201.21 232.67 255.69 198.96 211.85 240.19 201.21"/>
          <polygon class="cls-52" points="232.67 255.69 198.32 277.91 198.96 211.85 232.67 255.69"/>
          <polygon class="cls-56" points="198.96 211.85 78.19 247.84 198.32 277.91 198.96 211.85"/>
          <polygon class="cls-54" points="198.96 211.85 199.7 154.33 110.67 190.73 198.96 211.85"/>
          <polygon class="cls-59" points="198.96 211.85 78.19 247.84 110.67 190.73 198.96 211.85"/>
          <polygon class="cls-55" points="198.32 277.91 102.27 303.84 78.19 247.84 198.32 277.91"/>
          <polygon class="cls-58" points="198.32 277.91 186.68 309.96 102.27 303.84 198.32 277.91"/>
          <polygon class="cls-57" points="186.68 309.96 236.86 262.53 198.32 277.91 186.68 309.96"/>
          <polygon class="cls-65" points="248.84 301 186.68 309.96 236.86 262.53 248.84 301"/>
          <polygon class="cls-64" points="236.86 262.53 307.31 217.77 288.47 270.28 236.86 262.53"/>
          <polygon class="cls-66" points="380.3 303.94 387.09 316.55 399.46 310.36 380.3 303.94"/>
          <polygon class="cls-63" points="380.3 303.94 401.88 295.03 396.24 302.83 380.3 303.94"/>
        </g>
        <g class="cls-83">
          <circle class="cls-4" cx="283.84" cy="275.42" r="204.55"/>
        </g>
        <g>
          <polygon class="cls-8" points="126.86 426.59 109.91 417.1 122.66 411.95 140.08 423.8 126.86 426.59"/>
          <polygon class="cls-6" points="76.43 308.56 78.52 289.25 88.25 298.96 84.18 319.63 76.43 308.56"/>
          <polygon class="cls-7" points="139.08 399.5 131.56 381.59 125.01 393.68 134.82 412.32 139.08 399.5"/>
          <polygon class="cls-9" points="105.3 399.55 90.29 387.22 103.76 384.4 118.81 399.14 105.3 399.55"/>
          <polygon class="cls-11" points="119.63 370.65 115.14 351.75 106.7 362.61 113.33 382.6 119.63 370.65"/>
          <polygon class="cls-10" points="106.7 342.46 106.19 323.04 95.7 331.94 98.09 352.87 106.7 342.46"/>
          <polygon class="cls-13" points="86.42 366.87 73.18 352.65 86.9 351.65 99.86 368.26 86.42 366.87"/>
          <polygon class="cls-12" points="73.17 335.93 59.94 321.71 73.65 320.71 86.61 337.32 73.17 335.93"/>
          <polygon class="cls-14" points="441.71 424.26 458.67 414.77 445.92 409.62 428.5 421.47 441.71 424.26"/>
          <polygon class="cls-16" points="491.95 308.55 490.96 289.15 480.69 298.3 483.6 319.16 491.95 308.55"/>
          <polygon class="cls-15" points="430.36 397.59 437.88 379.68 444.43 391.77 434.61 410.41 430.36 397.59"/>
          <polygon class="cls-19" points="464.21 397.64 479.22 385.31 465.76 382.49 450.71 397.23 464.21 397.64"/>
          <polygon class="cls-17" points="448.71 368.78 453.2 349.88 461.64 360.74 455.01 380.73 448.71 368.78"/>
          <polygon class="cls-21" points="463.25 341.07 463.77 321.65 474.26 330.55 471.87 351.48 463.25 341.07"/>
          <polygon class="cls-20" points="482.65 365.33 495.89 351.11 482.17 350.11 469.21 366.72 482.65 365.33"/>
          <polygon class="cls-18" points="495.01 334.02 508.24 319.8 494.53 318.8 481.57 335.41 495.01 334.02"/>
        </g>
        <g>
          <path class="cls-70" d="M182,425.4h26.28c7.58,0,13.68,6.84,13.68,15.24v27.16c0,8.4-6.1,15.24-13.68,15.24h-26.28v-57.64ZM205.7,472.41c3.18,0,5.76-2.85,5.76-6.37v-23.71c0-3.45-2.57-6.37-5.76-6.37h-13.14v36.44h13.14Z"/>
          <path class="cls-69" d="M228.59,455.27c0-8.26,6.98-15.31,13.88-15.31h9.62c8.8,0,13.88,8.2,13.88,14.97v10.9h-27.43v2.3c0,4.06,2.57,5.55,6.23,5.55h19.71v9.48h-21.94c-7.65,0-13.95-6.3-13.95-14.76v-13.14ZM238.68,457.84h17.47v-.47c0-4.26-2.51-7.59-6.23-7.59h-5.28c-3.59,0-5.96,3.59-5.96,7.59v.47Z"/>
          <path class="cls-72" d="M272.67,425.4h9.96v57.64h-9.96v-57.64Z"/>
          <path class="cls-71" d="M289.87,484.14v-44.17h19.3c9.82,0,15.92,6.16,15.92,15.71v11.58c0,9.55-6.1,15.78-15.92,15.78h-2.71c-2.51,0-4.81-.41-6.84-1.15v7.51l-9.75-5.27ZM299.62,495.83v1.91h-9.75v-7.17l9.75,5.27ZM299.62,449.65v17.34c0,3.66,2.51,6.3,6.1,6.3h3.45c3.59,0,6.23-2.64,6.23-6.3v-11.04c0-3.66-2.64-6.3-6.23-6.3h-9.55Z"/>
          <path class="cls-67" d="M347.7,449.58c-5.96,0-7.11,3.05-7.11,7.11v26.35h-9.48v-57.64h9.48v15.44c1.63-.54,3.52-.88,5.62-.88h5.08c10.03,0,15.1,7.38,15.1,14.7v28.38h-9.55v-26.35c0-4.06-1.15-7.11-7.04-7.11h-2.1Z"/>
          <path class="cls-68" d="M372.96,428.44v-3.26h9.96v12.03l-9.96-8.78ZM382.91,444.95v38.09h-9.96v-46.87l9.96,8.78Z"/>
        </g>
      </g>
    </g>
  </g>
</svg>